<svg xmlns="http://www.w3.org/2000/svg" viewBox="0 0 300 300">

<path stroke="currentColor" stroke-width="2px" fill="orange" d="M224.13 275.18c-5.27 0-9.34-2.83-14.69-6.55-3.74-2.6-8.7-6.19-14.99-10.73-20.15-14.55-53.88-38.91-85.15-57.63-43.6-26.1-58.71-27.04-62.47-26.65-.7 3.94-.82 20.61 26.27 72.47 3.84 7.34 1 16.4-6.35 20.24-7.34 3.84-16.4 1-20.24-6.35-31.56-60.38-37.61-92.92-20.23-108.8 6.93-6.33 15.73-7.9 23.81-7.56-6.57-5.27-11.82-9.61-15.92-13.13-3.76-3.23-6.53-5.78-8.48-7.78-10-10.28-6.02-18.86-3.84-22.07 1.17-1.72 7.63-10.07 20.24-5.2 1.93.74 4.25 1.84 7.31 3.44 4.85 2.53 11.6 6.38 20.65 11.77 16.59 9.88 38.75 23.64 62.21 38.21.51.31 1.02.63 1.53.95-26.13-21.03-50.76-40.86-69.31-56.54-10.33-8.73-17.83-15.37-22.93-20.3-3.2-3.1-5.46-5.52-7.1-7.62-1.4-1.79-2.4-3.39-3.14-5.05-2.44-5.44-1.9-11.44 1.44-16.05 1.64-2.27 7.95-9.35 20.22-5.15 2.44.84 5.34 2.12 9.13 4.05 5.97 3.04 14.16 7.69 25.03 14.22 10.15 6.1 22 13.45 34.56 21.34-3.31-3.15-6.03-5.88-8.22-8.26-3.96-4.32-14.49-15.8-6.41-27.4 2.48-3.57 8.45-9.11 20.56-6.2 3.25.78 7.28 2.19 12.32 4.29 6.85 2.86 15.9 7.18 26.95 12.84-1.94-7.16-2.08-15.17 3.24-21.74 11.21-13.85 32.83-4.82 43.21-.47 15.2 6.36 35.69 17.21 62.62 33.18 7.13 4.23 9.48 13.43 5.25 20.55-4.23 7.13-13.43 9.48-20.55 5.25-28.62-16.97-46.41-25.95-57.34-30.68 4.33 6.4 10.41 13.87 17.99 20.69 5.13 4.62 10.92 8.84 17.28 12.61 1.55.88 2.97 1.68 4.08 2.31l1.8.96c1.96 1.02 6.55 3.4 8.4 9.48l-1.2 11.58-9.06 7.22c-6.08 1.73-10.11-.53-14.37-2.92l-.05-.03c-1.56-.85-3.1-1.72-4.62-2.61-.97-.55-2.01-1.14-3.13-1.78-5.62-3.19-12.86-7.3-20.95-11.84 2.12 1.74 4.16 3.42 6.1 5.01 16.43 13.49 31.94 26.23 43.37 36.21 6.36 5.56 10.99 9.85 14.14 13.12 2.19 2.27 3.75 4.14 4.93 5.88 6.38 9.44 1.94 17.08.43 19.19-1.64 2.29-7.94 9.45-20.26 5.23-2.44-.84-5.34-2.12-9.14-4.06-5.98-3.04-14.18-7.7-25.06-14.24-6.15-3.69-12.92-7.84-20.09-12.29 13.97 11.35 27.08 22.14 38.15 31.54 11.69 9.93 20.19 17.52 25.97 23.21 3.56 3.51 6.17 6.37 7.97 8.75 7.89 10.44 3.86 18.44 1.77 21.4-2.12 2.98-8.4 9.46-21.09 5.31-2.95-.97-6.66-2.56-11.35-4.87-3.79-1.87-8.27-4.23-13.51-7.13 2.61 2.08 4.79 3.84 6.57 5.32 2.18 1.81 3.81 3.23 4.98 4.34 10.65 10.09 3.94 20.12 3.13 21.24l-9.84 6.08c-.88.14-1.73.21-2.54.21z"></path>

</svg>